<svg width="39" height="39" viewBox="0 0 39 39" fill="none" xmlns="http://www.w3.org/2000/svg">
<path d="M20.2553 39H18.7431C18.6838 38.9602 18.6154 38.9705 18.5501 38.9673C16.8282 38.8912 15.1413 38.6052 13.5106 38.0479C7.49565 35.9934 3.37137 31.9749 1.12976 26.0334C0.536826 24.4606 0.208125 22.8205 0.0700383 21.1429C0.0481515 20.8736 0.0676503 20.6003 0 20.335V18.6219C0.0157177 18.5447 0.027539 18.4668 0.0354175 18.3885C0.105881 16.953 0.344421 15.5307 0.746143 14.1509C1.99303 9.87781 4.40602 6.41785 7.98512 3.771C10.6673 1.78944 13.6785 0.601862 16.9826 0.163641C18.3506 -0.0167044 19.7341 -0.0480945 21.1089 0.0700209C22.6051 0.196308 24.0724 0.465615 25.4938 0.946463C31.0266 2.81754 34.9927 6.41812 37.3923 11.7482C38.2626 13.6808 38.7521 15.7209 38.9284 17.8355C38.9515 18.1112 38.9324 18.3913 39 18.663V20.3362C38.9881 20.4198 38.969 20.5035 38.965 20.5875C38.8938 22.0223 38.6559 23.4439 38.2562 24.8235C37.107 28.7991 34.9228 32.0883 31.7037 34.6911C28.608 37.1844 25.0745 38.5971 21.1033 38.9291C20.8208 38.953 20.5339 38.9283 20.2553 39ZM7.07224 20.7441H3.25199C2.9599 20.7441 2.9595 20.7441 2.99293 21.0429C3.05896 21.6946 3.16019 22.3423 3.29616 22.983C4.16898 26.9262 6.19849 30.1382 9.38469 32.6191C11.9844 34.6429 14.9479 35.7691 18.2381 36.0221C20.1582 36.1699 22.0584 36.0249 23.9024 35.4775C29.3232 33.8708 33.05 30.4081 35.0846 25.1343C35.5988 23.8009 35.8757 22.4062 36.013 20.9843C36.0262 20.8465 36.0461 20.7385 35.8292 20.7389C33.2293 20.7469 30.6294 20.7469 28.0295 20.7389C27.8934 20.7389 27.8425 20.7855 27.8234 20.9106C27.7951 21.0935 27.7625 21.2759 27.7187 21.4556C26.6411 25.8777 22.3465 28.6361 17.8724 27.7772C14.4525 27.1206 11.7608 24.3678 11.181 20.9309C11.1579 20.7939 11.1082 20.7369 10.953 20.7377C9.65847 20.7473 8.36516 20.7441 7.07224 20.7441ZM13.653 19.4964C13.6546 22.7089 16.2862 25.3414 19.4992 25.3414C22.7122 25.3414 25.3438 22.7121 25.3466 19.4988C25.3494 16.2854 22.719 13.6581 19.4992 13.6565C16.2794 13.6549 13.6514 16.2846 13.653 19.4964Z" fill="black"/>
</svg>
